# xmcd
#
# Track frame offsets: 
#        150
#        18150
#        37350
#        52505
#        71707
#        91552
#        111362
#        129150
#        145510
#        169227
#
# Disc length: 2467 seconds
#
# Revision: 1
# Processed by: cddbd v1.5.2PL0 Copyright (c) Steve Scherf et al.
# Submitted via: ExactAudioCopyFreeDBPlugin 1.0
#
DISCID=7909a10a
DTITLE=Ken Franz - Penny For My Thoughts
DYEAR=2002
DGENRE=Southern Rock
TTITLE0=Just Hold Me In Your Heart
TTITLE1=It Must Be Love
TTITLE2=Fragile, Handle With Care
TTITLE3=Tequila And Mexican Sunsets
TTITLE4=Penny For My Thoughts
TTITLE5=One Good Heart Deserves Another
TTITLE6=With Blinders On
TTITLE7=Are Those Good Old Days Gone For Good
TTITLE8=Love Hopes And Dreams
TTITLE9=Roll Whichever Way The Wind Blows
EXTD=YEAR: 2002
EXTT0=
EXTT1=
EXTT2=
EXTT3=
EXTT4=
EXTT5=
EXTT6=
EXTT7=
EXTT8=
EXTT9=
PLAYORDER=
